# xmcd
#
# Track frame offsets: 
#        150
#        27812
#        45733
#        74227
#        94708
#        111127
#        128837
#        146989
#        176806
#        197876
#        221389
#        241136
#        257827
#        277796
#        295179
#        313257
#
# Disc length: 4464 seconds
#
# Revision: 0
# Processed by: cddbd v1.5.2PL0 Copyright (c) Steve Scherf et al.
# Submitted via: ExactAudioCopyFreeDBPlugin 1.0
#
DISCID=fa116e10
DTITLE=群星 - 试机宝典3号
DYEAR=2009
DGENRE=Acid
TTITLE0=试机3号（试音）序曲
TTITLE1=你可知道我爱谁
TTITLE2=挪威森林
TTITLE3=雪中情
TTITLE4=相思河畔
TTITLE5=外婆的澎湖湾
TTITLE6=山茶花
TTITLE7=爱上负心的人
TTITLE8=烟花三月
TTITLE9=渔舟唱晚
TTITLE10=船歌
TTITLE11=再见杨柳
TTITLE12=在水一方
TTITLE13=车站
TTITLE14=往事如昔
TTITLE15=夜上海
EXTD=
EXTT0=
EXTT1=
EXTT2=
EXTT3=
EXTT4=
EXTT5=
EXTT6=
EXTT7=
EXTT8=
EXTT9=
EXTT10=
EXTT11=
EXTT12=
EXTT13=
EXTT14=
EXTT15=
PLAYORDER=
